<?xml version="1.0" encoding="utf-8"?>
<!-- Generator: Adobe Illustrator 23.0.3, SVG Export Plug-In . SVG Version: 6.00 Build 0)  -->
<svg version="1.1" id="Layer_1" xmlns="http://www.w3.org/2000/svg" xmlns:xlink="http://www.w3.org/1999/xlink" x="0px" y="0px"
	 viewBox="0 0 999.32 227.17" style="enable-background:new 0 0 999.32 227.17;" xml:space="preserve">
<style type="text/css">
	.st0{fill:#FFFFFF;}
	.st1{fill:#41B6E6;}
	.st2{fill:#2A5270;}
	.st3{fill:#EF6079;}
	.st4{fill:#F8C1B8;}
</style>
<path class="st2" d="M202.83,37.45c-8.82,0-21.6,5.29-27.94,20.89c-8.42,20.72-22.89,56.6-28.03,69.4
	c-4.4,10.96-7.13,11.91-10.89,11.91c-4.96,0-8.98-3.71-8.98-12.81c0-8.19,0-38.79,0-59.16c0-36.52-24.62-66.09-61.02-67.61
	C29.16-1.49-1,28.35-1,65.2l0,118.45c0,15.08,12.35,27.25,27.4,26.15c13.2-0.97,23.6-11.98,23.6-25.43V78.94
	c0-20.06,11.37-27.65,21-27.65c14.68,0,21,12.83,21,25.62c0,24.64,0,58.2,0,58.2c0,21.97,17.08,40.49,39.02,41.49
	c21.51,0.98,35.63-11.15,42.8-31.32c4.85-13.63,15.2-41.98,23.2-64.38c1.85-5.19,3.67-7.44,6.48-7.44c5.5,0,5.5,6.61,5.5,13.04
	c0,4.18,0,37.78,0,53.48c0,8.17,7.06,13.44,14.99,11.06c5.13-1.54,8.01-6.7,8.01-13.3c0-9.61,0-53.84,0-60.6
	C232,48,220.33,37.45,202.83,37.45z"/>
<rect x="279" y="79.31" class="st2" width="23" height="70"/>
<path class="st2" d="M390,149.31v-44.99c0-19.53-10.91-26-24.92-26c-12.25,0-18.85,6.6-22.08,11.99h-0.27c0,0,0.27-2.02,0.27-4.31
	v-6.69h-23v70h23v-30.93c0-3.39,0.41-6.51,1.36-9.23c2.04-5.97,6.53-10.04,13.88-10.04c5.17,0,7.76,2.71,7.76,9.23v40.97H390z"/>
<path class="st2" d="M410,77.97v3.34h-9v18h9v50h23v-50h14v-18h-14v-2.17c0-5.97,7.37-6.78,12.1-6.78c2.23,0,3.9,0.27,3.9,0.27
	V52.37c0,0-2.84-0.41-7.04-0.41C430.72,51.97,410,55.08,410,77.97z"/>
<path class="st2" d="M492.3,77.99c-21.84,0-39.48,14.79-39.48,36.77c0,21.84,17.64,36.36,39.62,36.36
	c21.98,0,39.62-14.52,39.62-36.36C532.05,92.78,514.41,77.99,492.3,77.99z M492.43,131.58c-8.55,0-15.87-6.38-15.87-16.82
	c0-10.58,7.33-17.23,15.87-17.23s15.87,6.65,15.87,17.23C508.31,125.2,500.98,131.58,492.43,131.58z"/>
<path class="st2" d="M629.8,78.64c-10.24,0-18.35,5.9-21.94,11.67h-0.79c0,0-2.17-14.3-19.54-12.32
	c-11.53,1.32-17.5,7.19-20.76,12.32h-0.27c0-0.24,0.5-4.58,0.5-4.58v-6.42h-23v70h24v-28.9c0-2.99,0.14-6.11,0.68-8.68
	c1.64-7.46,5.47-12.62,12.85-12.62c4.51,0,5.47,3.66,5.47,8.82v41.38h23v-28.9c0-2.85,0-5.7,0.55-8.14
	c1.5-7.73,5.47-13.16,12.99-13.16c4.51,0,5.47,3.66,5.47,8.82v41.38h23v-44.79C652,85.48,642.3,78.64,629.8,78.64z"/>
<path class="st2" d="M702.17,151.33c18.59,0,29.85-10.18,29.85-10.18l-8.68-16.42c0,0-9.23,7.06-19.27,7.06
	c-7.46,0-14.52-3.93-16.28-12.48h44.09c0,0,0.54-5.02,0.54-7.33c0-19.4-11.67-33.78-32.29-33.78c-22.52,0-36.36,16.01-36.36,36.5
	C663.77,133.28,677.2,151.33,702.17,151.33z M699.59,95.27c5.56,0,9.23,4.75,9.23,10.04h-20.49
	C689.55,100.15,692.8,95.27,699.59,95.27z"/>
<path class="st2" d="M791,80.2c0,1.76,0.13,3.11,0.13,3.11h-0.68c0,0-4.18-5.52-18.19-5.52c-18.46,0-31.67,14.28-31.67,36.25
	c0,21.56,12.4,36.38,31.26,36.38c14.28,0,20.08-10.11,20.08-10.11h0.2c0,0-0.14,1.86-0.14,4.14v4.86h22v-97h-23V80.2z
	 M777.73,131.72c-8.14,0-13.7-6.78-13.7-17.23c0-10.72,6.38-16.69,13.7-16.69c9.23,0,13.7,8.28,13.7,16.69
	C791.43,126.56,784.78,131.72,777.73,131.72z"/>
<path class="st2" d="M908.51,131.58c-11.8,0-17.5-9.09-17.5-17.37c0-8.28,5.56-16.69,16.69-16.69c9.63,0,16.42,6.78,16.42,6.78
	l9.9-15.74c0,0-8.82-10.58-27.81-10.58c-25.1,0-38.94,17.77-38.94,36.5c0,19.27,13.97,36.63,38.94,36.63
	c19.54,0,29.98-11.53,29.98-11.53l-8.55-16.42C927.64,123.17,918.28,131.58,908.51,131.58z"/>
<path class="st2" d="M965.62,100.38c0-2.44,3.39-3.39,6.92-3.39c9.77,0,16.55,5.7,16.55,5.7l8-16.69c0,0-8.28-8-24.56-8
	c-16.14,0-28.76,8.14-28.76,21.3c0,22.79,32.7,23.47,32.7,29.58c0,2.31-3.39,3.26-6.92,3.26c-10.04,0-17.77-7.05-17.77-7.05
	l-10.04,15.74c0,0,10.45,10.31,27.95,10.31c18.04,0,28.63-10.18,28.63-22.11C998.32,106.48,965.62,105.67,965.62,100.38z"/>
<path class="st2" d="M290.57,70.75c3.26,0,6.04-1.15,8.34-3.46c2.31-2.31,3.46-5.09,3.46-8.34c0-3.26-1.15-6.04-3.46-8.34
	c-2.31-2.31-5.09-3.46-8.34-3.46c-3.26,0-6.04,1.15-8.34,3.46c-2.31,2.31-3.46,5.09-3.46,8.34c0,3.26,1.15,6.04,3.46,8.34
	C284.53,69.6,287.31,70.75,290.57,70.75z"/>
<rect x="832" y="79.31" class="st2" width="23" height="70"/>
<path class="st2" d="M843.18,70.75c3.26,0,6.04-1.15,8.34-3.46c2.31-2.31,3.46-5.09,3.46-8.34c0-3.26-1.15-6.04-3.46-8.34
	c-2.31-2.31-5.09-3.46-8.34-3.46c-3.26,0-6.04,1.15-8.34,3.46c-2.31,2.31-3.46,5.09-3.46,8.34c0,3.26,1.15,6.04,3.46,8.34
	C837.15,69.6,839.93,70.75,843.18,70.75z"/>
</svg>
